<svg width="20" height="20" viewBox="0 0 20 20" fill="none" xmlns="http://www.w3.org/2000/svg">
<g clip-path="url(#clip0_16_30)">
<path d="M17.9238 2.90625L17.0957 2.07813C17.0645 2.04688 17.0254 2.0332 16.9844 2.0332C16.9434 2.0332 16.9043 2.04883 16.8731 2.07813L15.3867 3.56445C14.7406 3.12667 13.9778 2.89326 13.1973 2.89453C12.1973 2.89453 11.1973 3.27539 10.4336 4.03906L8.44337 6.0293C8.41429 6.05866 8.39798 6.09832 8.39798 6.13965C8.39798 6.18098 8.41429 6.22063 8.44337 6.25L13.75 11.5566C13.7813 11.5879 13.8203 11.6016 13.8613 11.6016C13.9004 11.6016 13.9414 11.5859 13.9727 11.5566L15.9629 9.56641C17.3086 8.21875 17.4668 6.13477 16.4375 4.61523L17.9238 3.12891C17.9844 3.06641 17.9844 2.9668 17.9238 2.90625ZM15.0215 8.62695L13.8613 9.78711L10.2129 6.13867L11.3731 4.97852C11.8594 4.49219 12.5078 4.22266 13.1973 4.22266C13.8867 4.22266 14.5332 4.49023 15.0215 4.97852C15.5078 5.46484 15.7774 6.11328 15.7774 6.80273C15.7774 7.49219 15.5078 8.13867 15.0215 8.62695ZM11.3067 10.6777C11.2773 10.6487 11.2376 10.6323 11.1963 10.6323C11.155 10.6323 11.1153 10.6487 11.0859 10.6777L9.78517 11.9785L8.0215 10.2148L9.32423 8.91211C9.38478 8.85156 9.38478 8.75195 9.32423 8.69141L8.61329 7.98047C8.58393 7.95139 8.54427 7.93508 8.50294 7.93508C8.46161 7.93508 8.42196 7.95139 8.39259 7.98047L7.08985 9.2832L6.25001 8.44336C6.23543 8.42877 6.21806 8.41727 6.19893 8.40955C6.1798 8.40183 6.15931 8.39805 6.13868 8.39844C6.09962 8.39844 6.05861 8.41406 6.02736 8.44336L4.03907 10.4336C2.69337 11.7813 2.53517 13.8652 3.56446 15.3848L2.07814 16.8711C2.04906 16.9005 2.03275 16.9401 2.03275 16.9814C2.03275 17.0228 2.04906 17.0624 2.07814 17.0918L2.90626 17.9199C2.93751 17.9512 2.97657 17.9648 3.01759 17.9648C3.0586 17.9648 3.09767 17.9492 3.12892 17.9199L4.61525 16.4336C5.27345 16.8809 6.03907 17.1035 6.8047 17.1035C7.8047 17.1035 8.8047 16.7227 9.56837 15.959L11.5586 13.9688C11.6192 13.9082 11.6192 13.8086 11.5586 13.748L10.7188 12.9082L12.0215 11.6055C12.082 11.5449 12.082 11.4453 12.0215 11.3848L11.3067 10.6777ZM8.62696 15.0215C8.38792 15.2618 8.10362 15.4523 7.79051 15.582C7.4774 15.7117 7.14167 15.7781 6.80275 15.7773C6.11329 15.7773 5.46681 15.5098 4.97853 15.0215C4.73826 14.7824 4.54775 14.4981 4.41801 14.185C4.28827 13.8719 4.22188 13.5362 4.22267 13.1973C4.22267 12.5078 4.49025 11.8613 4.97853 11.373L6.13868 10.2129L9.78712 13.8613L8.62696 15.0215Z" fill="#515565" stroke="#515565" stroke-width="0.0164062"/>
</g>
<defs>
<clipPath id="clip0_16_30">
<rect width="20" height="20" fill="white"/>
</clipPath>
</defs>
</svg>
