<svg width="20" height="20" viewBox="0 0 20 20" fill="none" xmlns="http://www.w3.org/2000/svg">
<path d="M16.6667 10C16.4663 10.0014 16.2679 10.039 16.0809 10.1108L14.0825 8.47501C14.1317 8.29668 14.1667 8.11168 14.1667 7.91668C14.1667 6.76168 13.2384 5.83334 12.0834 5.83334C10.9284 5.83334 10 6.76168 10 7.91668C10 8.24668 10.0834 8.55418 10.2184 8.83084L7.79419 11.6958C7.69715 11.6777 7.59873 11.6679 7.50002 11.6667C7.35085 11.6667 7.21002 11.6917 7.07335 11.7283L4.93752 9.59251C4.97502 9.45668 5.00002 9.31584 5.00002 9.16668C5.00002 8.24334 4.25669 7.50001 3.33335 7.50001C2.41002 7.50001 1.66669 8.24334 1.66669 9.16668C1.66669 10.09 2.41002 10.8333 3.33335 10.8333C3.48252 10.8333 3.62335 10.8083 3.76002 10.7717L5.89585 12.9075C5.8558 13.046 5.83477 13.1892 5.83335 13.3333C5.83335 14.2567 6.57669 15 7.50002 15C8.42335 15 9.16669 14.2567 9.16669 13.3333C9.16669 13.1358 9.12669 12.95 9.06419 12.7742L11.4917 9.90584C11.6809 9.96084 11.8767 10 12.0834 10C12.4122 9.99819 12.7359 9.91791 13.0275 9.76584L15.0267 11.4017C15.011 11.4892 15.0021 11.5778 15 11.6667C15 12.59 15.7434 13.3333 16.6667 13.3333C17.59 13.3333 18.3334 12.59 18.3334 11.6667C18.3334 10.7433 17.59 10 16.6667 10Z" fill="#515565"/>
</svg>
