<svg width="20" height="20" viewBox="0 0 20 20" fill="none" xmlns="http://www.w3.org/2000/svg">
<g clip-path="url(#clip0_17_84)">
<path d="M13.3333 5.00001H15.8333C16.0543 5.00001 16.2663 5.08781 16.4226 5.24409C16.5789 5.40037 16.6666 5.61233 16.6666 5.83334V15C16.6666 15.442 16.4911 15.866 16.1785 16.1785C15.8659 16.4911 15.442 16.6667 15 16.6667M15 16.6667C14.558 16.6667 14.134 16.4911 13.8215 16.1785C13.5089 15.866 13.3333 15.442 13.3333 15V4.16668C13.3333 3.94566 13.2455 3.7337 13.0892 3.57742C12.933 3.42114 12.721 3.33334 12.5 3.33334H4.16665C3.94563 3.33334 3.73367 3.42114 3.57739 3.57742C3.42111 3.7337 3.33331 3.94566 3.33331 4.16668V14.1667C3.33331 14.8297 3.59671 15.4656 4.06555 15.9344C4.53439 16.4033 5.17027 16.6667 5.83331 16.6667H15Z" stroke="#515565" stroke-width="1.2"/>
<path d="M6.66669 6.66669H10" stroke="#515565" stroke-width="1.2"/>
<path d="M6.66669 10H10" stroke="#515565" stroke-width="1.2"/>
<path d="M6.66669 13.3333H10" stroke="#515565" stroke-width="1.2"/>
</g>
<defs>
<clipPath id="clip0_17_84">
<rect width="20" height="20" fill="white"/>
</clipPath>
</defs>
</svg>
