<svg width="22" height="22" viewBox="0 0 22 22" fill="none" xmlns="http://www.w3.org/2000/svg">
<path d="M9.16665 5.5H6.41665C5.93042 5.5 5.4641 5.69315 5.12028 6.03697C4.77647 6.38079 4.58331 6.8471 4.58331 7.33333V15.5833C4.58331 16.0696 4.77647 16.5359 5.12028 16.8797C5.4641 17.2235 5.93042 17.4167 6.41665 17.4167H14.6666C15.1529 17.4167 15.6192 17.2235 15.963 16.8797C16.3068 16.5359 16.5 16.0696 16.5 15.5833V12.8333" stroke="#515565" stroke-width="1.4"/>
<path d="M12.8333 6.41669C12.8333 7.14603 13.123 7.84551 13.6387 8.36123C14.1544 8.87696 14.8539 9.16669 15.5833 9.16669C16.3126 9.16669 17.0121 8.87696 17.5278 8.36123C18.0435 7.84551 18.3333 7.14603 18.3333 6.41669C18.3333 5.68734 18.0435 4.98787 17.5278 4.47214C17.0121 3.95642 16.3126 3.66669 15.5833 3.66669C14.8539 3.66669 14.1544 3.95642 13.6387 4.47214C13.123 4.98787 12.8333 5.68734 12.8333 6.41669Z" stroke="#515565" stroke-width="1.4"/>
</svg>
