<svg width="20" height="20" viewBox="0 0 20 20" fill="none" xmlns="http://www.w3.org/2000/svg">
<path d="M12.5 9.16666V9.17499" stroke="#515565" stroke-width="1.7"/>
<path d="M4.31083 6.98167C3.94533 6.70076 3.66462 6.32426 3.49972 5.89378C3.33482 5.4633 3.29215 4.99561 3.37643 4.5424C3.46071 4.08919 3.66866 3.66811 3.97729 3.32569C4.28593 2.98328 4.68323 2.73286 5.12528 2.60213C5.56733 2.47139 6.03693 2.46542 6.48216 2.58489C6.92739 2.70435 7.33092 2.94459 7.64816 3.27905C7.96539 3.61351 8.18397 4.02918 8.27974 4.4801C8.37551 4.93102 8.34474 5.39964 8.19083 5.83417" stroke="#515565" stroke-width="1.7"/>
<path d="M13.3334 3.33334V6.50251C14.3647 7.09928 15.1499 8.04372 15.5484 9.16668H16.6659C16.8869 9.16668 17.0988 9.25447 17.2551 9.41075C17.4114 9.56703 17.4992 9.779 17.4992 10V11.6667C17.4992 11.8877 17.4114 12.0997 17.2551 12.2559C17.0988 12.4122 16.8869 12.5 16.6659 12.5H15.5475C15.2675 13.2917 14.7917 14 14.1659 14.5608V16.25C14.1659 16.5815 14.0342 16.8995 13.7997 17.1339C13.5653 17.3683 13.2474 17.5 12.9159 17.5C12.5843 17.5 12.2664 17.3683 12.032 17.1339C11.7976 16.8995 11.6659 16.5815 11.6659 16.25V15.7642C11.3905 15.8103 11.1117 15.8334 10.8325 15.8333H7.49919C7.21997 15.8334 6.94123 15.8103 6.66586 15.7642V16.25C6.66586 16.5815 6.53416 16.8995 6.29974 17.1339C6.06532 17.3683 5.74738 17.5 5.41586 17.5C5.08434 17.5 4.76639 17.3683 4.53197 17.1339C4.29755 16.8995 4.16586 16.5815 4.16586 16.25V14.5833V14.5608C3.41082 13.8858 2.87859 12.9974 2.63959 12.0132C2.4006 11.029 2.46611 9.99549 2.82747 9.04936C3.18883 8.10323 3.82899 7.28915 4.66322 6.71487C5.49744 6.14058 6.4864 5.83318 7.49919 5.83334H9.58252L13.3325 3.33334H13.3334Z" stroke="#515565" stroke-width="1.7"/>
</svg>
