<svg width="18" height="18" viewBox="0 0 18 18" fill="none" xmlns="http://www.w3.org/2000/svg">
<g clip-path="url(#clip0_18_113)">
<mask id="mask0_18_113" style="mask-type:luminance" maskUnits="userSpaceOnUse" x="0" y="0" width="18" height="18">
<path d="M18 0H0V18H18V0Z" fill="white"/>
</mask>
<g mask="url(#mask0_18_113)">
<path d="M14.25 2.25H3.75C2.925 2.25 2.25 2.925 2.25 3.75V14.25C2.25 15.075 2.925 15.75 3.75 15.75H14.25C15.075 15.75 15.75 15.075 15.75 14.25V3.75C15.75 2.925 15.075 2.25 14.25 2.25ZM3.75 14.25V3.75H8.25V14.25H3.75ZM14.25 14.25H9.74997V9H14.25V14.25ZM14.25 7.5H9.74997V3.75H14.25V7.5Z" fill="white"/>
</g>
</g>
<defs>
<clipPath id="clip0_18_113">
<rect width="18" height="18" fill="white"/>
</clipPath>
</defs>
</svg>
