<svg width="20" height="20" viewBox="0 0 20 20" fill="none" xmlns="http://www.w3.org/2000/svg">
<path d="M11.6667 1.66666C13.1916 1.66593 14.6708 2.18805 15.8574 3.14593C17.044 4.10381 17.8663 5.43955 18.1872 6.93038C18.5081 8.42121 18.3082 9.977 17.6209 11.3383C16.9335 12.6996 15.8002 13.784 14.41 14.4108C13.9656 15.3932 13.2896 16.2532 12.4399 16.917C11.5902 17.5808 10.5921 18.0286 9.53135 18.2219C8.47058 18.4153 7.37874 18.3485 6.34946 18.0272C5.32018 17.706 4.38419 17.1398 3.62175 16.3774C2.85931 15.615 2.29318 14.679 1.97192 13.6497C1.65065 12.6204 1.58384 11.5286 1.77721 10.4678C1.97057 9.40703 2.41835 8.40899 3.08213 7.55927C3.74592 6.70956 4.6059 6.03353 5.58832 5.58916C6.11678 4.4199 6.97131 3.42791 8.04944 2.73216C9.12758 2.03642 10.3835 1.66646 11.6667 1.66666ZM8.33332 6.66666C7.67671 6.66666 7.02653 6.79599 6.41991 7.04726C5.81328 7.29853 5.26208 7.66683 4.79779 8.13112C4.3335 8.59542 3.9652 9.14661 3.71393 9.75324C3.46265 10.3599 3.33332 11.01 3.33332 11.6667C3.33332 12.3233 3.46265 12.9734 3.71393 13.5801C3.9652 14.1867 4.3335 14.7379 4.79779 15.2022C5.26208 15.6665 5.81328 16.0348 6.41991 16.2861C7.02653 16.5373 7.67671 16.6667 8.33332 16.6667C9.65941 16.6667 10.9312 16.1399 11.8689 15.2022C12.8065 14.2645 13.3333 12.9927 13.3333 11.6667C13.3333 10.3406 12.8065 9.06881 11.8689 8.13112C10.9312 7.19344 9.65941 6.66666 8.33332 6.66666ZM9.16666 7.49999V8.33332H10.8333V9.99999H7.49999C7.39587 9.9998 7.29545 10.0386 7.2185 10.1087C7.14156 10.1789 7.09367 10.2753 7.08426 10.379C7.07485 10.4827 7.10461 10.5862 7.16767 10.669C7.23074 10.7519 7.32253 10.8081 7.42499 10.8267L7.49999 10.8333H9.16666C9.71919 10.8333 10.2491 11.0528 10.6398 11.4435C11.0305 11.8342 11.25 12.3641 11.25 12.9167C11.25 13.4692 11.0305 13.9991 10.6398 14.3898C10.2491 14.7805 9.71919 15 9.16666 15V15.8333H7.49999V15H5.83332V13.3333H9.16666C9.27078 13.3335 9.3712 13.2947 9.44814 13.2246C9.52509 13.1544 9.57298 13.058 9.58239 12.9543C9.59179 12.8506 9.56204 12.7471 9.49897 12.6643C9.43591 12.5814 9.34411 12.5252 9.24166 12.5067L9.16666 12.5H7.49999C6.94746 12.5 6.41755 12.2805 6.02685 11.8898C5.63615 11.4991 5.41666 10.9692 5.41666 10.4167C5.41666 9.86412 5.63615 9.33422 6.02685 8.94352C6.41755 8.55282 6.94746 8.33332 7.49999 8.33332V7.49999H9.16666ZM11.6667 3.33332C10.9606 3.3325 10.2623 3.48161 9.61817 3.77079C8.97401 4.05997 8.3986 4.48264 7.92999 5.01082C8.87188 4.95365 9.81517 5.09707 10.6975 5.43161C11.5798 5.76616 12.3811 6.28419 13.0483 6.95147C13.7155 7.61875 14.2334 8.42007 14.5679 9.30244C14.9023 10.1848 15.0456 11.1281 14.9883 12.07C15.746 11.3963 16.281 10.5083 16.5223 9.52358C16.7637 8.53889 16.7 7.50409 16.3397 6.55643C15.9794 5.60876 15.3395 4.79302 14.5049 4.21739C13.6704 3.64176 12.6805 3.33344 11.6667 3.33332Z" fill="white"/>
</svg>
