<svg width="18" height="18" viewBox="0 0 18 18" fill="none" xmlns="http://www.w3.org/2000/svg">
<g clip-path="url(#clip0_19_43)">
<path d="M5.25 8.25V4.5C5.25 2.25 6.75 0.75 9 0.75C11.25 0.75 12.75 2.25 12.75 4.5V8.25M9 11.25V14.25M9 17.25C11.8995 17.25 14.25 14.8995 14.25 12C14.25 9.1005 11.8995 6.75 9 6.75C6.1005 6.75 3.75 9.1005 3.75 12C3.75 14.8995 6.1005 17.25 9 17.25ZM9 12C9.41421 12 9.75 11.6642 9.75 11.25C9.75 10.8358 9.41421 10.5 9 10.5C8.58579 10.5 8.25 10.8358 8.25 11.25C8.25 11.6642 8.58579 12 9 12Z" stroke="white" stroke-width="1.7"/>
</g>
<defs>
<clipPath id="clip0_19_43">
<rect width="18" height="18" fill="white"/>
</clipPath>
</defs>
</svg>
