<svg width="19" height="19" viewBox="0 0 19 19" fill="none" xmlns="http://www.w3.org/2000/svg">
<path d="M12.6667 9.5H14.25V12.6667H12.6667V9.5Z" fill="white"/>
<path d="M15.8333 5.54167V3.95833C15.8333 3.08512 15.1232 2.375 14.25 2.375H3.95831C2.6489 2.375 1.58331 3.44058 1.58331 4.75V14.25C1.58331 15.9925 3.00356 16.625 3.95831 16.625H15.8333C16.7065 16.625 17.4166 15.9149 17.4166 15.0417V7.125C17.4166 6.25179 16.7065 5.54167 15.8333 5.54167ZM3.95831 3.95833H14.25V5.54167H3.95831C3.75447 5.53255 3.56201 5.44516 3.42099 5.29769C3.27997 5.15022 3.20127 4.95404 3.20127 4.75C3.20127 4.54596 3.27997 4.34978 3.42099 4.20231C3.56201 4.05484 3.75447 3.96745 3.95831 3.95833ZM15.8333 15.0417H3.96781C3.60206 15.0322 3.16665 14.8873 3.16665 14.25V6.97854C3.41523 7.068 3.67885 7.125 3.95831 7.125H15.8333V15.0417Z" fill="white"/>
</svg>
