<svg width="52" height="57" viewBox="0 0 52 57" fill="none" xmlns="http://www.w3.org/2000/svg">
<path d="M46.2011 13.966L28.3698 3.67326C26.8192 2.77558 24.9015 2.77558 23.3407 3.67326L5.50944 13.966C3.95889 14.8637 3 16.5265 3 18.3218V38.9176C3 40.7129 3.95889 42.3757 5.50944 43.2734L23.3407 53.5662C24.8913 54.4638 26.809 54.4638 28.3698 53.5662L46.2011 43.2734C47.7516 42.3757 48.7105 40.7129 48.7105 38.9176V18.3218C48.7207 16.5265 47.7618 14.8637 46.2011 13.966ZM32.7664 42.2125L20.5865 35.184V39.3868H14.0476V23.8712L36.0307 36.5612L32.7664 42.2125ZM37.6629 33.3683L15.69 20.6783L18.9543 15.0167L31.1342 22.0452V17.8424H37.6731V33.3683H37.6629Z" fill="url(#paint0_linear_13_17)"/>
<defs>
<linearGradient id="paint0_linear_13_17" x1="8.24067" y1="10.9993" x2="43.4776" y2="46.2363" gradientUnits="userSpaceOnUse">
<stop stop-color="#5B69F9"/>
<stop offset="1" stop-color="#1A03F1"/>
</linearGradient>
</defs>
</svg>
